<?xml version="1.0" encoding="UTF-8"?>
<svg width="15px" height="22px" viewBox="0 0 15 22" version="1.1" xmlns="http://www.w3.org/2000/svg" xmlns:xlink="http://www.w3.org/1999/xlink">
    <title>ETHF</title>
    <g id="页面-1" stroke="none" stroke-width="1" fill="none" fill-rule="evenodd">
        <g id="ETHF" transform="translate(0.795268, 0.407433)">
            <polygon id="路径-7" fill="#B9A6FF" points="6.48096077 0 6.48096077 2.38064678 1.16654107 10.1305321 3.59765593e-16 9.43562773"></polygon>
            <polygon id="路径-7" fill="#7DA2F5" transform="translate(10.107275, 5.065266) scale(-1, 1) translate(-10.107275, -5.065266) " points="13.3477559 0 13.3477559 2.38064678 8.03333617 10.1305321 6.8667951 9.43562773"></polygon>
            <polygon id="路径-8" fill="#B9A6FF" points="6.48096077 3.02193475 6.48096077 13.3801395 1.52669587 10.3092026"></polygon>
            <polygon id="路径-8" fill="#6481F8" transform="translate(9.343928, 8.201037) scale(-1, 1) translate(-9.343928, -8.201037) " points="11.82106 3.02193475 11.82106 13.3801395 6.8667951 10.3092026"></polygon>
            <polygon id="路径-9" fill="#957BD9" points="3.09558413 11.951663 0.815889389 12.8829711 6.62685263 16.2299642 12.4564581 12.8829711 10.4801778 11.951663 6.62685263 14.0844915"></polygon>
            <polygon id="路径-10" fill="#B9A6FF" points="4.28052447 15.5248008 6.48096077 16.6160754 6.48096077 18.6318335"></polygon>
            <polygon id="路径-10" fill="#6481F8" transform="translate(7.967013, 17.078317) scale(-1, 1) translate(-7.967013, -17.078317) " points="6.8667951 15.5248008 9.0672314 16.6160754 9.0672314 18.6318335"></polygon>
            <polygon id="路径-11" fill="#B9A6FF" points="1.03937541 13.7278595 3.49822853 15.2557057 6.48096077 19.6978787 6.48096077 21.5714686"></polygon>
            <polygon id="路径-11" fill="#7DA2F5" transform="translate(9.587588, 17.649664) scale(-1, 1) translate(-9.587588, -17.649664) " points="6.8667951 13.7278595 9.32564823 15.2557057 12.3083805 19.6978787 12.3083805 21.5714686"></polygon>
        </g>
    </g>
</svg>